<svg width="96" height="96" xmlns="http://www.w3.org/2000/svg" xmlns:xlink="http://www.w3.org/1999/xlink" xml:space="preserve" overflow="hidden"><defs><clipPath id="clip0"><rect x="592" y="312" width="96" height="96"/></clipPath></defs><g clip-path="url(#clip0)" transform="translate(-592 -312)"><path d="M637.4 367.2 639 372.1 638.1 373 633.2 371.4C633.2 371.4 633.2 371.4 633.1 371.3 632 370.2 632 368.4 633.2 367.3 634.4 366.2 636.2 366.1 637.4 367.2ZM603.8 345.2 632 373.4 643 377 639.4 366.1 611.2 337.8 603.8 345.2Z" fill="#FFFFFF"/><path d="M597.5 335.9C596.7 336.8 596.8 338.2 597.7 339L601.7 343 609 335.7 605 331.7C605 331.7 605 331.7 605 331.7 604.1 330.8 602.6 330.8 601.8 331.7L597.7 335.8C597.6 335.8 597.6 335.9 597.5 335.9Z" fill="#FFFFFF"/><path d="M662 373 644.8 373 646.2 377 662 377Z" fill="#FFFFFF"/><path d="M662 349 626.6 349 630.6 353 662 353Z" fill="#FFFFFF"/><path d="M612 357.6 612 396C612 398.2 613.8 400 616 400L670 400C672.2 400 674 398.2 674 396L674 330C674 327.8 672.2 326 670 326L653 326 653 324C653 321.8 651.2 320 649 320L637 320C634.8 320 633 321.8 633 324L633 326 616 326C613.8 326 612 327.8 612 330L612 334.4 613.1 335.5 613.3 335.7 613.3 335.7 618 340.4 618 332 629 332 629 338 657 338 657 332 668 332 668 394 618 394 618 363.6 612 357.6ZM646 327C646 328.7 644.7 330 643 330 641.3 330 640 328.7 640 327 640 325.3 641.3 324 643 324 643.8 324 644.6 324.3 645.1 324.9 645.7 325.4 646 326.2 646 327Z" fill="#FFFFFF"/><path d="M662 361 638.6 361 642.6 365 662 365Z" fill="#FFFFFF"/></g></svg>